<svg width="219" height="200" viewBox="0 0 219 200" fill="none" xmlns="http://www.w3.org/2000/svg">
<path d="M178.167 176H39.8333C36.1645 176 32.6459 174.544 30.0517 171.953C27.4574 169.361 26 165.847 26 162.182V37.8182C26 34.1534 27.4574 30.6387 30.0517 28.0473C32.6459 25.4558 36.1645 24 39.8333 24L178.167 24C181.835 24 185.354 25.4558 187.948 28.0473C190.543 30.6387 192 34.1534 192 37.8182V162.182C192 165.847 190.543 169.361 187.948 171.953C185.354 174.544 181.835 176 178.167 176ZM39.8333 162.182H178.167V76.3087L114.997 112.74C111.394 114.031 107.663 114.93 103.868 115.421L39.8333 78.492V162.182ZM39.8333 37.8182V62.532L107.305 101.451C107.543 101.199 107.802 100.967 108.08 100.76L178.167 60.3487V37.8182H39.8333Z" fill="#546176"/>
</svg>
